<?xml version="1.0" encoding="iso-8859-1"?>
<!-- Generator: Adobe Illustrator 19.0.0, SVG Export Plug-In . SVG Version: 6.00 Build 0)  -->
<svg version="1.1" id="Layer_1" xmlns="http://www.w3.org/2000/svg" xmlns:xlink="http://www.w3.org/1999/xlink" x="0px" y="0px"
	 viewBox="0 0 512.157 512.157" style="enable-background:new 0 0 512.157 512.157;" xml:space="preserve">
<g transform="translate(1 1)">
	<g>
		<path style="fill:#FFE100;" d="M235.462,17.773l-71.68,98.987c-8.533,11.093,0,27.307,13.653,27.307h52.053v93.867h-51.2
			c-56.32,0-102.4,46.08-102.4,102.4v34.133c-24.747,10.24-41.813,32.427-42.667,59.733c-0.853,33.28,9.387,62.293,42.667,67.413
			c42.667,6.827,68.267-25.6,68.267-67.413c0-29.013-17.92-49.493-42.667-59.733v-34.133c0-42.667,48.64-51.2,76.8-51.2h51.2v85.333
			c-24.747,10.24-41.813,32.427-42.667,59.733c-0.853,33.28,23.04,62.293,56.32,67.413c42.667,6.827,79.36-25.6,79.36-67.413
			c0-29.013-17.92-49.493-42.667-59.733v-85.333h51.2c28.16,0,76.8,8.533,76.8,51.2v34.133
			c-24.747,10.24-41.813,32.427-42.667,59.733c-0.853,33.28,17.92,62.293,51.2,67.413c42.667,6.827,59.733-25.6,59.733-67.413
			c0-29.013-17.92-49.493-42.667-59.733v-34.133c0-56.32-46.08-102.4-102.4-102.4h-42.667v-93.867h43.52
			c13.653,0,22.187-15.36,13.653-27.307l-70.827-98.987C265.329,4.12,244.849,4.12,235.462,17.773"/>
		<path style="fill:#FFE100;" d="M102.342,331.8c0,0.853,0,0.853,0,1.707C102.342,332.653,102.342,332.653,102.342,331.8"/>
	</g>
	<path style="fill:#FFFFFF;" d="M75.889,501.613c-33.28-5.12-43.52-33.28-42.667-67.413c0.853-27.307,17.92-49.493,42.667-59.733
		v-34.133c0-56.32,46.08-102.4,102.4-102.4h-25.6c-56.32,0-102.4,46.08-102.4,102.4v34.133
		C25.542,384.707,8.475,406.893,7.622,434.2c-0.853,33.28,23.04,62.293,56.32,67.413c5.973,0.853,11.947,0.853,17.92,0.853
		C80.155,501.613,77.595,501.613,75.889,501.613"/>
	<path style="fill:#FFE100;" d="M407.835,333.507c0-0.853,0-0.853,0-1.707C407.835,332.653,407.835,332.653,407.835,333.507"/>
	<path style="fill:#FFA800;" d="M459.889,374.467v-34.133c0-56.32-46.08-102.4-102.4-102.4h-25.6c56.32,0,102.4,46.08,102.4,102.4
		v34.133c24.747,10.24,42.667,30.72,42.667,59.733c0,36.693-13.653,66.56-46.08,68.267c39.253,2.56,71.68-29.013,71.68-68.267
		C502.555,405.187,484.635,384.707,459.889,374.467"/>
	<g>
		<path style="fill:#FFE100;" d="M485.489,383v-42.667c0-56.32-46.08-102.4-102.4-102.4h-25.6c56.32,0,102.4,46.08,102.4,102.4V383
			H485.489z"/>
		<path style="fill:#FFE100;" d="M408.689,340.333v34.133c-1.707,0.853-4.267,1.707-5.973,2.56c1.707-0.853,3.413-1.707,5.973-2.56
			V340.333L408.689,340.333L408.689,340.333"/>
	</g>
	<path d="M434.289,511c-4.267,0-8.533,0-12.8-0.853c-38.4-6.827-64.853-38.4-64-75.947c0.853-28.16,17.067-52.053,42.667-64.853
		v-29.013c0-23.893-18.773-42.667-42.667-42.667h-68.267v70.827c26.453,12.8,42.667,36.693,42.667,65.707
		c0,22.187-10.24,43.52-27.307,58.88c-17.067,14.507-40.107,20.48-62.293,17.067c-38.4-6.827-64.853-38.4-64-75.947
		c0.853-28.16,17.067-52.053,42.667-64.853v-71.68h-68.267c-23.893,0-42.667,18.773-42.667,42.667v28.16
		c26.453,12.8,42.667,36.693,42.667,65.707c0,22.187-10.24,43.52-27.307,58.88c-17.067,15.36-40.107,20.48-62.293,17.067
		c-38.4-6.827-64.853-38.4-64-75.947c0.853-28.16,17.067-52.053,42.667-64.853v-29.013c0-16.213,3.413-31.573,10.24-46.08
		c1.707-4.267,6.827-5.973,11.093-4.267s5.973,6.827,4.267,11.093c-5.973,11.947-8.533,25.6-8.533,39.253v34.133
		c0,3.413-1.707,6.827-5.12,7.68c-22.187,9.387-36.693,29.013-37.547,52.053c-0.853,29.013,19.627,53.76,49.493,58.88
		c17.92,2.56,34.987-1.707,48.64-13.653c13.653-11.093,21.333-27.307,21.333-45.227c0-23.04-13.653-41.813-37.547-52.053
		c-3.413-0.853-5.12-4.267-5.12-7.68v-34.133c0-33.28,26.453-59.733,59.733-59.733h76.8c5.12,0,8.533,3.413,8.533,8.533v85.333
		c0,3.413-1.707,6.827-5.12,7.68c-22.187,9.387-36.693,29.013-37.547,52.053c-0.853,29.013,19.627,53.76,49.493,58.88
		c17.92,2.56,34.987-1.707,48.64-13.653c13.653-11.093,21.333-27.307,21.333-45.227c0-23.04-13.653-41.813-37.547-52.053
		c-3.413-0.853-5.12-4.267-5.12-7.68v-85.333c0-5.12,3.413-8.533,8.533-8.533h76.8c33.28,0,59.733,26.453,59.733,59.733v34.133
		c0,3.413-1.707,6.827-5.12,7.68c-22.187,9.387-36.693,29.013-37.547,52.053c-0.853,29.013,19.627,53.76,49.493,58.88
		c17.92,2.56,34.987-1.707,48.64-13.653c13.653-11.093,21.333-27.307,21.333-45.227c0-23.04-13.653-41.813-37.547-52.053
		c-3.413-0.853-5.12-4.267-5.12-7.68v-34.133c0-52.053-41.813-93.867-93.867-93.867h-68.267c-5.12,0-8.533-3.413-8.533-8.533
		v-93.867c0-5.12,3.413-8.533,8.533-8.533h43.52c3.413,0,5.973-1.707,7.68-4.267c1.707-2.56,0.853-5.973-0.853-8.533l-71.68-99.84
		c-5.973-8.533-19.627-8.533-25.6,0l-71.68,98.987c-1.707,2.56-2.56,5.973-0.853,8.533c1.707,2.56,4.267,4.267,7.68,4.267h52.053
		c5.12,0,8.533,3.413,8.533,8.533v93.867c0,5.12-3.413,8.533-8.533,8.533h-76.8c-16.213,0-32.427,4.267-46.933,12.8
		c-4.267,2.56-9.387,0.853-11.947-3.413c-2.56-4.267-0.853-9.387,3.413-11.947c17.067-9.387,35.84-14.507,55.467-14.507h68.267
		v-76.8h-43.52c-9.387,0-18.773-5.12-23.04-13.653c-4.267-8.533-3.413-18.773,1.707-26.453l71.68-98.987
		C234.609,4.12,243.995-1,255.089-1s20.48,5.12,26.453,13.653l71.68,98.987c5.973,7.68,6.827,17.92,1.707,26.453
		c-4.267,8.533-12.8,13.653-23.04,13.653h-34.133v76.8h59.733c61.44,0,110.933,49.493,110.933,110.933v28.16
		c26.453,12.8,42.667,36.693,42.667,65.707c0,22.187-10.24,43.52-27.307,58.88C470.129,505.027,452.209,511,434.289,511z"/>
	<path d="M82.715,268.653c0-5.12-3.413-8.533-8.533-8.533s-8.533,3.413-8.533,8.533s3.413,8.533,8.533,8.533
		C79.302,277.187,82.715,273.773,82.715,268.653"/>
</g>
<g>
</g>
<g>
</g>
<g>
</g>
<g>
</g>
<g>
</g>
<g>
</g>
<g>
</g>
<g>
</g>
<g>
</g>
<g>
</g>
<g>
</g>
<g>
</g>
<g>
</g>
<g>
</g>
<g>
</g>
</svg>
