<?xml version="1.0" encoding="iso-8859-1"?>
<!-- Generator: Adobe Illustrator 19.0.0, SVG Export Plug-In . SVG Version: 6.00 Build 0)  -->
<svg version="1.1" id="Layer_1" xmlns="http://www.w3.org/2000/svg" xmlns:xlink="http://www.w3.org/1999/xlink" x="0px" y="0px"
	 viewBox="0 0 511.99 511.99" style="enable-background:new 0 0 511.99 511.99;" xml:space="preserve">
<rect x="31.335" y="54.015" style="fill:#48CFAD;" width="445.33" height="274"/>
<polygon style="fill:#ED5564;" points="150.997,394.493 125.498,364.493 72.999,361.493 51.663,382.993 38.499,408.242 
	31.335,461.991 160.997,454.991 "/>
<polygon style="fill:#A0D468;" points="310.822,394.493 285.323,364.493 232.824,361.493 211.488,382.993 198.325,408.242 
	191.161,461.991 320.822,454.991 "/>
<polygon style="fill:#AC92EB;" points="470.647,394.493 445.147,364.493 392.649,361.493 371.306,382.993 358.149,408.242 
	350.993,461.991 480.647,454.991 "/>
<g>
	<path style="fill:#EAC6BB;" d="M131.935,351.134c0,22.156-17.968,40.141-40.14,40.141c-22.164,0-40.132-17.984-40.132-40.141
		c0-22.171,17.969-40.14,40.132-40.14C113.967,310.994,131.935,328.963,131.935,351.134z"/>
	<path style="fill:#EAC6BB;" d="M292.433,351.134c0,22.156-17.969,40.141-40.14,40.141c-22.164,0-40.132-17.984-40.132-40.141
		c0-22.171,17.968-40.14,40.132-40.14C274.464,310.994,292.433,328.963,292.433,351.134z"/>
	<path style="fill:#EAC6BB;" d="M456.429,351.134c0,22.156-17.969,40.141-40.14,40.141s-40.14-17.984-40.14-40.141
		c0-22.171,17.969-40.14,40.14-40.14S456.429,328.963,456.429,351.134z"/>
</g>
<path style="fill:#F5F7FA;" d="M239.331,190.152c0,39.124-31.71,70.843-70.834,70.843c-39.125,0-70.834-31.719-70.834-70.843
	c0-39.108,31.71-70.826,70.834-70.826S239.331,151.044,239.331,190.152z"/>
<path d="M170.661,106.654c-22.789,0-44.218,8.875-60.335,24.999c-16.117,16.125-24.992,37.547-24.992,60.343
	c0,22.797,8.875,44.218,24.992,60.343s37.546,25,60.335,25c22.796,0,44.226-8.875,60.342-25
	c16.117-16.125,24.992-37.546,24.992-60.343c0-22.796-8.875-44.218-24.992-60.343C214.887,115.529,193.457,106.654,170.661,106.654z
	 M215.918,237.245c-12.086,12.094-28.164,18.75-45.257,18.75c-13.5,0-26.359-4.156-37.125-11.844
	c3.562-4.203,3.375-10.484-0.586-14.438c-3.953-3.968-10.242-4.155-14.437-0.594c-7.695-10.765-11.852-23.624-11.852-37.124
	c0-17.093,6.664-33.155,18.75-45.249c12.085-12.094,28.155-18.75,45.249-18.75c13.5,0,26.359,4.156,37.124,11.844
	c-3.555,4.203-3.367,10.484,0.586,14.438c3.961,3.969,10.25,4.156,14.438,0.594c7.703,10.766,11.851,23.624,11.851,37.124
	C234.66,209.09,228.004,225.152,215.918,237.245z"/>
<path d="M238.542,109.029c-4.164,4.156-4.164,10.922,0,15.094c4.172,4.155,10.922,4.155,15.086,0c4.164-4.172,4.164-10.938,0-15.094
	C249.464,104.873,242.706,104.873,238.542,109.029z"/>
<path d="M178.207,169.372c-4.164,4.156-4.164,10.905,0,15.093c4.164,4.156,10.914,4.156,15.086,0c4.164-4.188,4.164-10.937,0-15.093
	C189.121,165.216,182.371,165.216,178.207,169.372z"/>
<path d="M148.037,199.527c-4.164,4.188-4.164,10.938,0,15.094c4.164,4.172,10.921,4.172,15.085,0c4.164-4.156,4.164-10.906,0-15.094
	C158.958,195.371,152.201,195.371,148.037,199.527z"/>
<path d="M87.702,259.87c-4.172,4.172-4.172,10.938,0,15.094c4.164,4.156,10.914,4.156,15.078,0c4.172-4.156,4.172-10.922,0-15.094
	C98.616,255.714,91.866,255.714,87.702,259.87z"/>
<path d="M416.18,149.341H309.525c-5.905,0-10.671,4.766-10.671,10.656s4.766,10.656,10.671,10.656h106.654
	c5.891,0,10.672-4.766,10.672-10.656S422.07,149.341,416.18,149.341z"/>
<path d="M415.992,191.996H309.338c-5.905,0-10.687,4.781-10.687,10.656c0,5.906,4.781,10.688,10.687,10.688h106.654
	c5.891,0,10.656-4.781,10.656-10.688C426.648,196.777,421.883,191.996,415.992,191.996z"/>
<path d="M362.852,234.651h-53.717c-5.89,0-10.671,4.781-10.671,10.688c0,5.875,4.781,10.656,10.671,10.656h53.718
	c5.891,0,10.672-4.781,10.672-10.656C373.524,239.433,368.743,234.651,362.852,234.651z"/>
<path d="M501.335,319.994h-10.688V53.343c0-5.906-4.766-10.688-10.656-10.688H31.999c-5.891,0-10.664,4.781-10.664,10.688v266.651
	H10.664C4.773,319.994,0,324.775,0,330.65c0,5.905,4.773,10.687,10.664,10.687h21.335h10.984c-0.703,3.438-1.078,7-1.078,10.656
	c0,7.844,1.719,15.281,4.773,22c-15.531,13.688-25.343,33.718-25.343,55.999v28.655c0,5.906,4.773,10.688,10.664,10.688h127.998
	c5.891,0,10.664-4.781,10.664-10.688v-28.655c0-22.797-10.273-43.233-26.429-56.937c2.789-6.469,4.344-13.594,4.344-21.062
	c0-3.656-0.375-7.219-1.078-10.656h55.483c-0.703,3.438-1.078,7-1.078,10.656c0,7.844,1.718,15.281,4.773,22
	c-15.531,13.688-25.343,33.718-25.343,55.999v28.655c0,5.906,4.773,10.688,10.664,10.688h127.998
	c5.891,0,10.656-4.781,10.656-10.688v-28.655c0-22.797-10.266-43.233-26.421-56.937c2.796-6.469,4.343-13.594,4.343-21.062
	c0-3.656-0.375-7.219-1.078-10.656h55.483c-0.703,3.438-1.078,7-1.078,10.656c0,7.844,1.719,15.281,4.781,22
	c-15.531,13.688-25.344,33.718-25.344,55.999v28.655c0,5.906,4.766,10.688,10.656,10.688h127.998
	c5.891,0,10.656-4.781,10.656-10.688v-28.655c0-22.797-10.266-43.233-26.422-56.937c2.797-6.469,4.344-13.594,4.344-21.062
	c0-3.656-0.375-7.219-1.078-10.656h12.5h21.344c5.875,0,10.655-4.781,10.655-10.687C511.99,324.775,507.21,319.994,501.335,319.994z
	 M127.24,351.993c0,17.656-14.351,32-31.999,32s-32-14.344-32-32s14.351-31.999,32-31.999
	C112.889,319.994,127.24,334.337,127.24,351.993z M149.333,429.992v17.999H42.663v-17.999c0-15.188,6.398-28.905,16.632-38.64
	c9.484,8.672,22.109,13.984,35.945,13.984c14.21,0,27.125-5.609,36.694-14.688C142.615,400.399,149.333,414.43,149.333,429.992z
	 M287.245,351.993c0,17.656-14.359,32-32.008,32c-17.648,0-31.999-14.344-31.999-32s14.351-31.999,31.999-31.999
	C272.886,319.994,287.245,334.337,287.245,351.993z M309.338,429.992v17.999H202.661v-17.999c0-15.188,6.398-28.905,16.632-38.64
	c9.484,8.672,22.109,13.984,35.944,13.984c14.211,0,27.133-5.609,36.695-14.688C302.62,400.399,309.338,414.43,309.338,429.992z
	 M447.241,351.993c0,17.656-14.359,32-31.999,32c-17.655,0-31.999-14.344-31.999-32s14.344-31.999,31.999-31.999
	C432.882,319.994,447.241,334.337,447.241,351.993z M469.335,429.992v17.999H362.649v-17.999c0-15.188,6.406-28.905,16.641-38.64
	c9.484,8.672,22.109,13.984,35.952,13.984c14.203,0,27.124-5.609,36.687-14.688C462.616,400.399,469.335,414.43,469.335,429.992z
	 M457.866,319.994c-9.734-12.938-25.219-21.343-42.624-21.343c-17.421,0-32.905,8.405-42.655,21.343H297.87
	c-9.734-12.938-25.219-21.343-42.633-21.343s-32.897,8.405-42.64,21.343H137.88c-9.742-12.938-25.226-21.343-42.64-21.343
	s-32.898,8.405-42.64,21.343h-9.937V63.999h426.672v255.995H457.866z"/>
<g>
</g>
<g>
</g>
<g>
</g>
<g>
</g>
<g>
</g>
<g>
</g>
<g>
</g>
<g>
</g>
<g>
</g>
<g>
</g>
<g>
</g>
<g>
</g>
<g>
</g>
<g>
</g>
<g>
</g>
</svg>
